<svg width="39" height="36" viewBox="0 0 39 36" fill="none" xmlns="http://www.w3.org/2000/svg">
<path d="M21.68 2.28V2.16C21.68 1.6 21.86 1.1 22.22 0.66C22.58 0.22 23.04 0 23.6 0C24.16 0 24.66 0.18 25.1 0.54C25.54 0.9 25.78 1.38 25.82 1.98C25.86 2.58 25.68 3.08 25.28 3.48C24.88 3.88 24.4 4.08 23.84 4.08L23.48 4.2L23.6 4.38L23.48 5.04L23.24 6.96C23.32 7.04 23.36 7.12 23.36 7.2L23.12 8.4C23.04 8.56 22.96 8.68 22.88 8.76L22.76 9.24C22.6 9.88 22.46 10.4 22.34 10.8C22.22 11.2 22.12 11.52 22.04 11.76V12C21.96 12.4 21.9 12.72 21.86 12.96C21.82 13.2 21.68 13.6 21.44 14.16C21.28 14.48 21.28 15 21.44 15.72L21.56 15.84C21.56 16.08 21.66 16.36 21.86 16.68C22.06 17 22.16 17.28 22.16 17.52C22.24 19.12 22.12 20.48 21.8 21.6L22.04 22.32C23 22.8 23.28 23.32 22.88 23.88L23.48 24.12C24.44 24.6 25.12 25.02 25.52 25.38C25.92 25.74 26.32 26.12 26.72 26.52C27.04 26.6 27.28 26.72 27.44 26.88L27.8 27C29.48 28.12 31.16 29.48 32.84 31.08L33.32 31.44V31.56L33.2 31.8L33.56 32.04H33.68C33.92 32.2 34.08 32.28 34.16 32.28H34.28C34.36 32.28 34.44 32.24 34.52 32.16L34.76 32.04C34.92 31.88 35.08 31.76 35.24 31.68H35.72C35.8 31.68 35.8 31.72 35.72 31.8L35.24 32.04L34.64 32.76H35.48L36.32 32.88C36.56 32.8 36.76 32.72 36.92 32.64L37.52 32.28C37.76 32.2 38 32.28 38.24 32.52H38.36C38.44 32.6 38.4 32.72 38.24 32.88L36.8 34.2C36.4 34.52 36.04 34.72 35.72 34.8L34.16 35.88C34.08 35.96 34 35.96 33.92 35.88L33.56 35.4L33.32 34.92L33.02 34.5L32.66 34.02L32.36 33.66L32.12 33.36L31.64 33C31.48 33 31.32 32.96 31.16 32.88L29.6 31.68C29.36 31.68 29.08 31.56 28.76 31.32C27.56 30.28 26.76 29.64 26.36 29.4L25.64 28.92L24.2 28.68C23.72 28.6 23.08 28.36 22.28 27.96L21.32 27.48C20.68 27.16 20.24 27 20 27L19.52 26.76C19.2 26.68 18.96 26.6 18.8 26.52L18.56 26.28C18.4 26.28 18.24 26.32 18.08 26.4L15.68 27.6L12.68 28.92C11.88 29.56 11.12 30.08 10.4 30.48L9.08 31.08L7.04 32.52C6.88 32.68 6.72 32.68 6.56 32.52L6.32 32.76C6.08 32.84 5.92 32.88 5.84 32.88L5.36 33.12V33.36H5.12L4.88 33.72C4.72 34.04 4.56 34.22 4.4 34.26C4.24 34.3 4.14 34.36 4.1 34.44C4.06 34.52 4.02 34.58 3.98 34.62L3.74 34.86L3.38 35.1L2.84 35.04L2.12 35.16L1.64 35.28C1.24 35.36 0.92 35.3 0.68 35.1C0.44 34.9 0.24 34.6 0.08 34.2C-0.08 33.96 0 33.76 0.32 33.6L0.44 33.48C0.52 33.4 0.64 33.36 0.8 33.36H1.52L2.48 33L2.96 32.88C2.96 32.72 3 32.6 3.08 32.52C3.16 32.44 3.28 32.4 3.44 32.4V32.28C3.36 32.12 3.32 31.96 3.32 31.8C3.24 31.64 3.22 31.52 3.26 31.44C3.3 31.36 3.34 31.32 3.38 31.32H3.44L3.56 31.68C3.64 32.08 3.76 32.2 3.92 32.04L4.04 31.8C4.12 31.64 4.24 31.56 4.4 31.56L4.64 31.8L4.88 31.56L4.76 31.44C4.76 31.36 4.8 31.32 4.88 31.32L5.36 30.84C5.76 30.36 6.24 29.92 6.8 29.52C7.92 28.64 9.12 27.96 10.4 27.48C10.8 27.08 11.24 26.88 11.72 26.88C12.04 26.32 12.52 25.72 13.16 25.08C13.72 24.68 14.12 24.4 14.36 24.24C14.52 23.92 14.72 23.76 14.96 23.76H15.08L15.32 23.52C15.48 23.44 15.6 23.36 15.68 23.28V22.68C15.68 22.28 15.72 21.96 15.8 21.72C15.88 21.48 16.08 21.36 16.4 21.36L16.88 20.88C16.72 20.56 16.64 20.2 16.64 19.8H16.52C16.36 19.56 16.28 19.32 16.28 19.08C16.04 18.68 15.88 18.36 15.8 18.12H15.44C15.36 18.36 15.16 18.52 14.84 18.6L14.72 18.84C14.4 19.4 14.12 19.82 13.88 20.1C13.64 20.38 13.2 20.72 12.56 21.12C12.16 21.52 11.88 21.96 11.72 22.44C11.64 22.68 11.64 22.92 11.72 23.16L11.6 23.4H11.72C11.72 23.56 11.76 23.64 11.84 23.64H11.96C12.12 23.72 12.2 23.82 12.2 23.94C12.2 24.06 12.08 24.1 11.84 24.06C11.6 24.02 11.42 23.94 11.3 23.82C11.18 23.7 11.08 23.64 11 23.64L10.64 24C10.48 24.24 10.32 24.34 10.16 24.3C10 24.26 9.96 24.2 10.04 24.12L10.16 24C10.24 23.84 10.24 23.76 10.16 23.76L9.2 24C9.12 24.08 9.02 24.08 8.9 24C8.78 23.92 8.8 23.84 8.96 23.76L9.56 23.52C9.56 23.44 9.52 23.4 9.44 23.4C9.12 23.56 8.8 23.6 8.48 23.52L7.88 23.4L7.76 23.28C7.76 23.2 7.8 23.16 7.88 23.16C8.2 23.24 8.6 23.2 9.08 23.04L9.92 22.68L10.88 21.6L11 21.36C11.32 20.72 11.66 20.14 12.02 19.62C12.38 19.1 12.76 18.68 13.16 18.36L13.28 17.88C13.44 17.56 13.6 17.28 13.76 17.04C13.92 16.8 14.12 16.48 14.36 16.08L14.72 15.6C15.04 15.12 15.4 14.88 15.8 14.88L16.16 14.52C16.24 14.44 16.28 14.32 16.28 14.16L16.52 13.92L16.4 13.8C15.92 13.4 15.68 13.04 15.68 12.72C15.6 12.16 15.78 11.68 16.22 11.28C16.66 10.88 17.1 10.7 17.54 10.74C17.98 10.78 18.32 10.92 18.56 11.16L18.8 11.4C18.88 11.4 18.92 11.44 18.92 11.52L19.4 11.76V12.12C19.56 12.28 19.64 12.4 19.64 12.48C19.8 12.24 20.04 11.96 20.36 11.64L20.96 9.72C20.96 9.4 21.04 9.08 21.2 8.76L21.44 8.4V8.16L21.8 6.72H22.04L22.4 5.28C22.48 5.04 22.48 4.76 22.4 4.44L21.92 3.24L21.68 2.28Z" fill="white"/>
</svg>
